<?xml version="1.0" encoding="UTF-8" standalone="no"?>
<!-- Created with Inkscape (http://www.inkscape.org/) -->

<svg
   width="841.30884"
   height="613.78497"
   viewBox="0 0 222.59629 162.39727"
   version="1.1"
   id="svg1"
   xml:space="preserve"
   inkscape:version="1.4.2 (ebf0e940, 2025-05-08)"
   sodipodi:docname="logo.svg"
   xmlns:inkscape="http://www.inkscape.org/namespaces/inkscape"
   xmlns:sodipodi="http://sodipodi.sourceforge.net/DTD/sodipodi-0.dtd"
   xmlns="http://www.w3.org/2000/svg"
   xmlns:svg="http://www.w3.org/2000/svg"><sodipodi:namedview
     id="namedview1"
     pagecolor="#ffffff"
     bordercolor="#000000"
     borderopacity="0.25"
     inkscape:showpageshadow="2"
     inkscape:pageopacity="0.0"
     inkscape:pagecheckerboard="0"
     inkscape:deskcolor="#d1d1d1"
     inkscape:document-units="mm"
     inkscape:zoom="0.5695622"
     inkscape:cx="252.82577"
     inkscape:cy="-215.07747"
     inkscape:window-width="2560"
     inkscape:window-height="1440"
     inkscape:window-x="0"
     inkscape:window-y="0"
     inkscape:window-maximized="0"
     inkscape:current-layer="layer1" /><defs
     id="defs1" /><g
     inkscape:label="Layer 1"
     inkscape:groupmode="layer"
     id="layer1"
     transform="translate(-24.168515,-54.267959)"><path
       style="fill:#245100;fill-opacity:1;stroke:none;stroke-width:0.450001;stroke-linecap:round;stroke-linejoin:round;paint-order:markers stroke fill"
       d="m 34.978991,119.29028 -1.862173,89.46393 c 0.16112,4.39788 4.07173,4.10152 6.281346,4.3227 67.003286,2.70237 132.445486,3.35188 197.573016,3.58757 3.64705,-0.12804 5.32749,-2.16772 5.02577,-7.36758 l -0.002,-85.42712 c -0.41407,-2.54658 -0.10213,-5.38613 -6.91876,-5.34904 L 45.265655,114.3393 c -2.611305,0.0256 -5.618203,0.31699 -7.728162,1.24566 -1.410472,0.62081 -2.403276,1.70172 -2.558502,3.70532 z"
       id="path1-8-9"
       sodipodi:nodetypes="ccccccccsc" /><circle
       style="fill:#4a851f;fill-opacity:1;paint-order:markers stroke fill"
       id="path2-9-1-9-5"
       cx="171.97166"
       cy="130.14302"
       r="34.596386"
       transform="rotate(12.943504)" /><path
       style="fill:#245100;fill-opacity:1;stroke:none;stroke-width:0.450001;stroke-linecap:round;stroke-linejoin:round;paint-order:markers stroke fill"
       d="m 25.491641,110.32436 7.859884,89.13745 c 0.637546,4.3544 4.49288,3.63531 6.713449,3.61534 66.900716,-4.58662 132.026746,-11.04451 196.795036,-17.87962 3.61161,-0.52316 5.06071,-2.7332 4.19635,-7.86958 l -9.27443,-84.922178 c -0.68804,-2.486589 -0.68617,-5.343222 -7.45849,-4.56643 L 35.180109,104.28604 c -2.593091,0.30894 -5.550598,0.92496 -7.547284,2.07718 -1.334752,0.77024 -2.20436,1.95253 -2.141184,3.96114 z"
       id="path1-8"
       sodipodi:nodetypes="ccccccccsc" /><path
       id="path1-3-6-3"
       style="fill:#4a851f;fill-opacity:1;stroke:none;stroke-width:0.450001;stroke-linecap:round;stroke-linejoin:round;paint-order:markers stroke fill"
       d="m 238.21072,118.78325 c -0.82866,-0.17444 -1.85641,-0.2687 -3.13452,-0.26174 L 45.265412,114.34005 c -2.611305,0.0256 -5.618206,0.31699 -7.728164,1.24566 -1.410474,0.62081 -2.403203,1.70174 -2.558428,3.70533 l -1.862191,89.46413 c 0.16112,4.39788 4.071835,4.10115 6.281451,4.32233 67.00329,2.70237 132.44555,3.35217 197.57308,3.58787 3.64705,-0.12804 5.32762,-2.16807 5.0259,-7.36793 l -0.002,-85.42694 c -0.33643,-2.0691 -0.19338,-4.33144 -3.78427,-5.08725 z m -25.45748,7.76454 c 2.80448,15.26602 10.75987,15.91553 18.49067,17.20286 l 0.0184,48.02036 c -11.50593,-0.44674 -18.72062,4.26953 -20.18247,15.90763 L 61.585053,205.14456 c -1.160114,-5.8389 0.127454,-14.3633 -16.941102,-17.62829 l 0.593271,-47.76791 c 7.64258,-0.023 15.059543,-0.79735 17.97982,-16.52572 z" /><path
       style="fill:#173800;fill-opacity:1;stroke:none;stroke-width:0.264583;stroke-opacity:1;paint-order:markers stroke fill"
       d="m 33.357015,198.4548 c 0.261299,3.23782 0.128597,7.06664 2.670961,6.88286 67.515264,-3.82885 134.681344,-8.62511 201.247894,-16.56738 1.70459,-0.008 3.40203,-0.44626 4.46091,-2.0022 0.0968,-0.1423 0.2744,-0.27264 0.27402,-0.45549 -0.0215,-10.20681 -0.0291,0.0528 -0.0257,-10.20897 9e-5,-0.27187 -0.0771,-0.54245 -0.11718,-0.81937 -0.93948,-6.48537 -2.98448,-21.42036 -3.97318,-27.31745 l -0.24939,33.47993 z"
       id="path7"
       sodipodi:nodetypes="cccssssccc" /><path
       id="path1-3-6"
       style="fill:#4a851f;fill-opacity:1;stroke:none;stroke-width:0.450001;stroke-linecap:round;stroke-linejoin:round;paint-order:markers stroke fill"
       d="m 227.46749,87.760109 c -0.84269,-0.08346 -1.8746,-0.06561 -3.1444,0.08005 L 35.17995,104.28682 c -2.593092,0.30895 -5.550602,0.92495 -7.547288,2.07717 -1.334753,0.77025 -2.204285,1.95254 -2.141108,3.96114 l 7.859887,89.13765 c 0.637546,4.35441 4.492944,3.63493 6.713512,3.61496 66.900717,-4.58661 132.026837,-11.04422 196.795137,-17.87932 1.50395,-0.21786 2.75841,-0.63727 3.37601,-1.62076 1.32898,-2.11631 0.72774,-6.54126 0.19689,-11.95838 l -8.65137,-79.212751 c -0.55904,-2.020356 -0.66241,-4.284858 -4.31413,-4.64642 z m -24.46424,10.481999 c 4.445,14.871392 12.42388,14.653532 20.24874,15.094102 l 5.23076,47.73462 c -11.48643,0.80483 -18.14655,6.27637 -18.33649,18.00438 L 61.259733,192.78334 C 59.472678,187.10487 59.827339,178.49108 42.50523,177.09812 l -4.595305,-47.55006 c 7.594928,-0.85243 14.884012,-2.42731 16.079763,-18.37974 z"
       sodipodi:nodetypes="sccsccccsccsccccccccc" /><circle
       style="fill:#4a851f;fill-opacity:1;paint-order:markers stroke fill"
       id="path2-9-1-9"
       cx="149.37296"
       cy="128.30753"
       r="34.596386"
       transform="rotate(6.7119325)" /><path
       style="fill:#245100;fill-opacity:1;stroke:none;stroke-width:0.450001;stroke-linecap:round;stroke-linejoin:round;paint-order:markers stroke fill"
       d="m 24.235077,100.28641 18.224184,87.60788 c 1.142109,4.25005 4.886974,3.08528 7.089989,2.80591 65.90613,-12.37437 129.83102,-26.39978 193.35654,-40.758 3.52571,-0.94169 4.70658,-3.30595 3.24781,-8.3061 L 227.01724,58.379918 c -0.97395,-2.38913 -1.30597,-5.226403 -7.94109,-3.663402 L 33.1514,93.157112 c -2.539211,0.609898 -5.404449,1.56736 -7.252782,2.945051 -1.23558,0.920963 -1.961045,2.196788 -1.663541,4.184247 z"
       id="path1"
       sodipodi:nodetypes="ccccccccsc" /><path
       style="fill:#173800;fill-opacity:1;stroke:none;stroke-width:0.264583;stroke-opacity:1;paint-order:markers stroke fill"
       d="m 25.915902,108.12952 14.131655,83.43915 c 0.484034,2.22488 1.707176,3.67546 4.996852,2.9611 C 111.45832,182.07069 177.48513,168.9023 241.98487,153.54954 l 0.10563,-7.67672 -193.15969,40.32886 z"
       id="path6"
       sodipodi:nodetypes="ccccccc" /><path
       id="path1-3"
       style="fill:#4a851f;fill-opacity:1;stroke:none;stroke-width:0.450001;stroke-linecap:round;stroke-linejoin:round;paint-order:markers stroke fill"
       d="m 222.1894,54.270356 c -0.84667,0.0156 -1.86942,0.15394 -3.1135,0.44701 L 33.151333,93.157906 c -2.539211,0.6099 -5.404454,1.56735 -7.252787,2.94504 -1.23558,0.92097 -1.960969,2.19679 -1.663465,4.184244 l 18.224211,87.60808 c 1.142109,4.25005 4.886992,3.08489 7.090007,2.80552 65.906131,-12.37437 129.831151,-26.3995 193.356671,-40.75772 3.52571,-0.94169 4.70663,-3.30632 3.24786,-8.30647 L 227.01702,58.380706 c -0.79134,-1.94117 -1.15867,-4.17807 -4.82762,-4.11035 z m -23.07146,13.26948 c 6.15266,14.24995 14.0514,13.10103 21.87412,12.62403 l 10.77402,46.796104 c -11.31364,2.14182 -17.28862,8.35428 -16.10651,20.02411 L 69.395632,177.99975 C 66.95714,172.56907 66.302611,163.97286 48.936416,164.61401 L 38.81507,117.92693 c 7.443245,-1.73426 14.498303,-4.15028 13.821379,-20.133124 z"
       sodipodi:nodetypes="sccsccccccsccccccccc" /><circle
       style="fill:#4a851f;fill-opacity:1;stroke:none;stroke-width:0.450001;stroke-linecap:round;stroke-linejoin:round;paint-order:markers stroke fill"
       id="path2"
       cx="73.447334"
       cy="135.25125"
       r="8.9905624" /><circle
       style="fill:#4a851f;fill-opacity:1;paint-order:markers stroke fill"
       id="path2-9"
       cx="197.45549"
       cy="110.00301"
       r="8.9905624" /><circle
       style="fill:#4a851f;fill-opacity:1;paint-order:markers stroke fill"
       id="path2-9-1"
       cx="135.39667"
       cy="122.0051"
       r="34.596386" /><path
       style="fill:#ffffff;fill-opacity:1;stroke:none;stroke-width:0.264583;stroke-opacity:1;paint-order:markers stroke fill"
       d="m 140.18391,112.28863 6.22239,-1.2874 c -1.91976,-3.74199 -3.28432,-9.07129 -11.98606,-8.91333 l -1.33623,-5.1111 c -1.88484,0.460978 -4.03006,0.983085 -6.56347,1.443509 l 0.8871,4.837321 c -5.04585,2.43437 -7.0955,5.40055 -7.72708,8.15279 -0.35087,1.52902 -1.05187,6.48412 3.60083,9.58878 1.40181,0.9354 2.9148,1.35261 5.26124,2.03448 3.90547,1.13492 9.53905,1.28412 12.45284,2.85518 3.84639,2.0739 4.5012,6.8376 0.43587,9.77925 -2.95865,2.11466 -5.63051,2.14735 -7.40566,1.40827 -1.8106,-0.75384 -3.04392,-2.51378 -4.14091,-4.51133 -2.93328,0.55584 -5.56833,1.13879 -7.08066,1.82381 2.9667,7.33573 7.83877,9.55652 13.2742,8.83639 l 0.92633,4.76927 6.48579,-1.23856 -1.37544,-5.17917 c 6.72689,-3.22793 12.16604,-7.28474 7.72436,-17.70164 -2.22107,-3.0743 -5.18448,-5.14954 -11.23162,-5.72271 -3.91647,-0.37121 -10.79777,-0.24261 -10.7998,-4.99519 0.66591,-3.05648 3.65702,-4.61726 5.53204,-4.85656 2.41305,-0.30797 5.01785,0.56556 6.84394,3.98794 z"
       id="path3"
       sodipodi:nodetypes="ccccccsssscscccccccscsc" /></g></svg>
