<?xml version="1.0" encoding="UTF-8" standalone="no"?>
<!-- Created with Inkscape (http://www.inkscape.org/) -->

<svg
   width="100.1688"
   height="100.16982"
   viewBox="0 0 100.1688 100.16982"
   version="1.1"
   id="svg1"
   xml:space="preserve"
   inkscape:version="1.4.2 (ebf0e940, 2025-05-08)"
   sodipodi:docname="logo.svg"
   inkscape:export-filename="logo-512.png"
   inkscape:export-xdpi="490.69171"
   inkscape:export-ydpi="490.69171"
   xmlns:inkscape="http://www.inkscape.org/namespaces/inkscape"
   xmlns:sodipodi="http://sodipodi.sourceforge.net/DTD/sodipodi-0.dtd"
   xmlns="http://www.w3.org/2000/svg"
   xmlns:svg="http://www.w3.org/2000/svg"><sodipodi:namedview
     id="namedview1"
     pagecolor="#fafaf2"
     bordercolor="#000000"
     borderopacity="0.24705882"
     inkscape:showpageshadow="2"
     inkscape:pageopacity="0.0"
     inkscape:pagecheckerboard="false"
     inkscape:deskcolor="#d1d1d1"
     inkscape:document-units="mm"
     inkscape:zoom="6.902501"
     inkscape:cx="48.098508"
     inkscape:cy="49.474821"
     inkscape:window-width="2072"
     inkscape:window-height="1304"
     inkscape:window-x="244"
     inkscape:window-y="30"
     inkscape:window-maximized="0"
     inkscape:current-layer="layer1"
     showguides="false" /><defs
     id="defs1" /><g
     inkscape:label="Layer 1"
     inkscape:groupmode="layer"
     id="layer1"
     transform="translate(-55.071625,-93.15399)"><g
       id="g1"
       transform="matrix(0.94134149,0,0,1.0001004,3.2350204,-0.01440312)"><g
         id="g15"
         transform="matrix(0.75371983,0,0,0.75371983,27.18128,50.998249)"
         inkscape:export-filename="g15.png"
         inkscape:export-xdpi="96"
         inkscape:export-ydpi="96"><path
           id="path2"
           style="fill:#1a1a1a;stroke:#1a1a1a;stroke-width:0.450001;stroke-linecap:round;stroke-linejoin:round;paint-order:markers stroke fill"
           d="m 128.86914,56.161947 -80.247818,23.185148 0.225309,16.88269 2.847888,0.447001 -0.07855,-15.094686 74.286941,-21.101554 -0.70435,47.735584 3.23133,0.50747 z" /><path
           id="path4"
           style="fill:#5aa02c;stroke:#5aa02c;stroke-width:0.450001;stroke-linecap:round;stroke-linejoin:round;paint-order:markers stroke fill"
           d="M 114.21473,67.775708 63.69637,81.660132 c -0.312031,3.852841 -0.646195,7.694419 -7.765934,8.001579 l 0.121921,8.035893 59.574173,7.338876 c -0.24335,-5.314506 2.3746,-6.887262 5.88337,-7.295159 V 73.109749 c -3.56298,0.0851 -6.19812,-1.357617 -7.29517,-5.334041 z m -21.584725,9.194271 0.623734,3.017387 c 2.874186,-0.04562 5.488448,1.053249 7.127731,2.697509 l -2.304769,2.565219 c -1.127807,-0.632162 -2.573652,-1.065287 -3.991488,-1.238168 l 0.823206,3.98477 c 1.773564,0.04299 3.574181,0.142784 4.878255,0.673861 2.678956,1.250967 3.152236,3.544183 3.282486,4.910811 0.21371,2.242198 -1.26723,4.039536 -3.05924,5.015715 -0.754954,0.478075 -1.697563,0.808812 -2.699064,1.025777 l 0.539502,2.61018 -3.348633,0.24598 -0.526583,-2.508895 c -0.98923,0.0079 -1.89445,-0.06324 -2.582271,-0.1788 -2.193854,-0.368594 -3.745165,-1.372608 -5.213635,-2.458248 l 1.784904,-2.974495 c 1.596259,1.2548 3.333309,2.016036 5.269962,2.079459 l -0.959631,-4.574914 c -0.905639,0.01908 -1.878026,0.04398 -2.897498,0.04186 -2.29572,-0.04176 -4.34825,-1.650141 -4.783687,-3.436483 -0.880514,-3.612238 1.058145,-5.832917 3.642672,-7.186125 0.552846,-0.289459 1.110688,-0.526311 1.669149,-0.714685 l -0.574126,-2.73575 z m -1.964738,7.223848 c -1.199446,0.354819 -2.011042,1.077768 -1.99471,2.245858 0.180111,1.286393 1.283718,1.457453 2.779158,1.491382 l -0.783931,-3.73724 z m 5.052921,7.720976 0.82424,3.98787 c 0.404012,-0.139149 0.816198,-0.306239 1.236617,-0.502811 1.108542,-0.673879 0.934835,-1.541039 0.732255,-2.040186 -0.376437,-0.927521 -1.370538,-1.305384 -2.793112,-1.444873 z"
           sodipodi:nodetypes="cccccccccccccccscccccscccccsscccccccccccscc" /><path
           style="fill:#5aa02c;fill-opacity:1;stroke:#5aa02c;stroke-width:0.450001;stroke-linecap:round;stroke-linejoin:round;paint-order:markers stroke fill"
           d="m 154.26045,58.454782 h 10.39158 l -0.0931,49.903518 -10.20891,4.89306 z"
           id="path9"
           sodipodi:nodetypes="ccccc" /><path
           style="fill:#5aa02c;stroke:#5aa02c;stroke-width:0.450001;stroke-linecap:round;stroke-linejoin:round;paint-order:markers stroke fill"
           d="m 141.77973,70.482406 10.36928,0.01185 -0.0434,43.999034 -3.62098,1.07233 -6.62526,-5.42096 z"
           id="path10"
           sodipodi:nodetypes="cccccc" /><path
           style="fill:#5aa02c;stroke:#5aa02c;stroke-width:0.450001;stroke-linecap:round;stroke-linejoin:round;paint-order:markers stroke fill"
           d="m 130.71497,83.235053 8.88237,-0.06535 0.01,26.586617 -8.84948,-1.3972 z"
           id="path11"
           sodipodi:nodetypes="ccccc" /><path
           id="path1"
           style="fill:#1a1a1a;stroke:#1a1a1a;stroke-width:0.450001;stroke-linecap:round;stroke-linejoin:round;paint-order:markers stroke fill"
           d="m 46.243858,86.595834 c -5.186787,0.538945 -9.424234,4.270954 -8.991351,12.271516 l 0.128674,64.06431 c -0.0042,4.55611 2.503753,6.33124 5.92987,7.08949 l 95.129079,18.17511 c 5.01164,1.18127 9.58138,-0.28267 16.12356,-3.68608 5.45684,-2.83878 12.21883,-6.25601 19.19573,-9.46195 5.55842,-3.21335 3.99308,-12.48399 3.98012,-18.22266 l -0.11317,-50.22381 c -0.22074,-3.111 0.0961,-7.243318 -10.82777,-8.765355 v 7.733895 c -5.21563,3.32604 -11.76391,5.76404 -18.04644,8.37882 -0.84734,-2.18648 -3.38718,-5.07066 -9.65522,-5.82394 L 46.381148,93.113696 Z m -4.952322,8.045418 c 6.351666,2.751248 15.73556,3.43756 25.660966,5.156274 10.283297,1.780684 21.702159,3.561624 33.208308,5.342314 12.74786,1.97285 25.60305,3.94565 37.14089,5.9185 12.97725,1.83438 11.24495,11.36078 11.07839,20.06854 -0.88291,0.19784 -1.71069,0.46457 -3.26905,-0.1819 -0.009,-3.28788 0.37224,-7.23903 -0.56637,-10.4252 -0.8928,-3.03066 -3.36165,-5.45398 -9.96735,-6.28334 -10.01806,-1.28536 -25.72969,-4.01375 -41.578862,-6.80889 C 81.171379,105.34174 69.267792,103.21871 59.596362,101.63101 48.711766,99.84413 42.27745,100.16408 41.291536,94.641252 Z M 173.23387,105.52586 c 0.69955,0.74512 1.03952,1.62509 0.87178,2.69544 -7.0795,4.41229 -14.67122,7.92797 -22.59552,10.86187 -0.16893,-1.29549 -0.57362,-2.00156 -0.95136,-2.77502 7.65291,-2.93209 15.23314,-6.37357 22.6751,-10.78229 z m -1.73943,19.0779 c 0.74412,0.73974 0.89306,1.56451 0.87747,2.41278 -6.79426,4.70289 -14.67814,7.69334 -22.86941,10.20092 -3.67282,-0.38775 -9.80891,-1.25037 -14.66887,-1.77973 -5.783,-0.6299 -10.82693,0.33296 -12.64316,8.25117 -1.58193,8.41481 5.8296,11.85244 13.58522,13.14856 4.42524,0.73955 8.89062,0.96592 11.80703,0.83664 l 0.16485,-18.37253 c 1.15028,0.36429 1.77137,0.19939 2.41277,0.0548 l 0.49351,17.22066 1.75545,-0.71262 c 0.41214,0.74651 0.76768,1.53548 0.49351,2.79673 -2.02483,1.13989 -3.65447,2.3929 -11.13317,1.97455 -11.89397,-1.58006 -23.96602,-2.98773 -22.9247,-17.1111 1.71897,-11.8574 10.35276,-12.33087 20.21996,-10.7735 3.92304,0.78774 7.67392,1.3004 11.09544,1.28571 8.18646,-2.23895 15.05102,-5.59122 21.3341,-9.43302 z m -38.91235,16.87236 c 2.21955,3e-5 4.01885,1.79933 4.01887,4.01888 -3e-5,2.21955 -1.79932,4.01884 -4.01887,4.01887 -2.21955,-2e-5 -4.01885,-1.79932 -4.01888,-4.01887 2e-5,-2.21956 1.79932,-4.01886 4.01888,-4.01888 z m 15.59698,21.60126 0.17622,18.09296 c -0.20622,2.54015 -1.79648,2.65821 -3.45922,2.64945 l 0.0765,-20.60856 c 1.46225,0.23639 2.34176,0.0565 3.2065,-0.13385 z"
           sodipodi:nodetypes="cccccsccccccccccsscccscsscccccccccscscccccccccccccccccccccc" /></g></g></g></svg>
